<?xml version="1.0" standalone="no"?>
<!DOCTYPE svg PUBLIC "-//W3C//DTD SVG 20010904//EN"
 "http://www.w3.org/TR/2001/REC-SVG-20010904/DTD/svg10.dtd">
<svg version="1.0" xmlns="http://www.w3.org/2000/svg"
 width="1080.000000pt" height="1080.000000pt" viewBox="0 0 1080.000000 1080.000000"
 preserveAspectRatio="xMidYMid meet">
<metadata>
Created by potrace 1.14, written by Peter Selinger 2001-2017
</metadata>
<g transform="translate(0.000000,1080.000000) scale(0.100000,-0.100000)"
fill="#000000" stroke="none">
<path d="M5307 9844 c-1 -1 -35 -5 -75 -8 -277 -26 -592 -177 -802 -386 -48
-47 -105 -115 -129 -152 -34 -53 -50 -68 -75 -73 -53 -11 -176 -75 -218 -113
l-40 -36 -137 -2 c-83 -1 -165 -8 -211 -18 -41 -10 -84 -19 -94 -21 -82 -18
-229 -85 -328 -148 -118 -75 -225 -182 -326 -325 -59 -83 -151 -306 -166 -402
-3 -19 -9 -46 -12 -60 -4 -14 -8 -106 -9 -205 -2 -99 -8 -205 -13 -235 -14
-77 -7 -188 18 -256 12 -33 22 -61 22 -64 1 -3 -6 -23 -16 -45 -122 -274 -55
-570 177 -785 46 -43 183 -140 198 -140 3 0 13 -17 21 -37 14 -36 13 -40 -14
-86 -34 -58 -34 -70 -4 -188 41 -160 118 -304 224 -420 l52 -57 -21 -26 c-23
-30 -22 -52 5 -146 18 -62 19 -192 2 -233 -6 -14 -35 -51 -63 -82 -86 -91
-158 -194 -210 -300 -103 -207 -146 -317 -158 -395 -4 -25 -13 -41 -33 -52
-59 -36 -148 -136 -197 -221 -30 -53 -30 -63 0 -242 8 -49 15 -97 15 -106 0
-9 -45 -54 -100 -99 l-100 -81 0 -62 c-1 -177 -8 -231 -43 -327 -42 -112 -64
-213 -68 -310 -2 -36 7 -64 48 -145 27 -55 62 -131 77 -170 16 -38 32 -79 37
-90 17 -40 76 -232 94 -303 10 -41 23 -78 29 -83 132 -110 355 -230 548 -293
149 -50 170 -51 255 -23 40 13 74 22 77 20 2 -2 -3 -25 -11 -51 -8 -26 -15
-51 -16 -57 -1 -20 14 -159 18 -165 2 -4 6 -18 9 -33 11 -60 40 -136 94 -245
59 -118 67 -124 227 -170 77 -22 154 -43 170 -48 17 -4 35 -8 40 -10 56 -15
184 -47 200 -50 11 -2 31 -6 45 -9 93 -20 173 -35 210 -41 19 -3 46 -7 60 -10
66 -12 268 -41 355 -49 33 -4 76 -8 95 -10 239 -27 836 -27 1080 0 19 2 62 6
95 10 111 11 150 16 240 31 50 8 104 16 120 18 42 6 399 78 404 82 3 3 2 183
-2 272 -1 23 3 42 8 43 6 0 17 2 25 4 8 1 31 5 50 9 63 11 95 17 110 21 8 2
31 7 50 10 19 3 42 8 50 10 8 2 30 7 49 10 19 3 37 8 41 10 4 2 21 7 39 10
131 23 479 131 681 211 376 149 603 273 855 469 82 64 218 197 275 270 86 108
162 260 190 375 18 74 20 93 20 180 1 66 -4 102 -26 199 -11 50 -75 175 -124
241 -170 229 -475 405 -895 515 -139 37 -308 71 -399 80 -28 3 -62 8 -76 10
-27 6 -64 10 -185 20 -44 4 -81 8 -82 9 -1 0 -3 32 -4 70 -5 136 -12 154 -118
280 -89 108 -162 226 -307 501 -17 31 -36 48 -89 75 -46 23 -96 62 -151 117
-80 80 -123 112 -204 154 -35 18 -40 26 -50 77 -17 83 -64 198 -110 269 l-39
63 22 20 c14 14 29 50 42 103 l20 82 82 0 82 1 98 74 c54 40 177 152 273 249
96 97 201 194 233 215 138 93 251 259 286 419 35 160 14 312 -64 470 -36 71
-43 95 -39 125 23 161 -33 364 -131 480 l-34 40 14 73 c13 69 14 226 2 274
-22 88 -32 117 -59 170 -80 157 -220 279 -385 336 -38 13 -75 37 -124 83 -100
92 -240 157 -364 168 -16 1 -52 18 -80 36 -27 19 -74 45 -102 58 -31 13 -53
29 -53 38 0 22 1 19 -19 88 -102 350 -413 603 -791 644 -58 6 -159 11 -163 8z"/>
</g>
</svg>
